# xmcd
#
# Track frame offsets: 
#        150
#        18616
#        35626
#        56570
#        72086
#        85609
#        101820
#        118334
#
# Disc length: 1968 seconds
#
# Revision: 0
# Processed by: cddbd v1.5.2PL0 Copyright (c) Steve Scherf et al.
# Submitted via: ExactAudioCopy v1.3
#
DISCID=6b07ae08
DTITLE=The California Honeydrops - Call It Home, vol. 2
DYEAR=2018
DGENRE=Blues
TTITLE0=Only Home I've Ever Known
TTITLE1=Silicon World
TTITLE2=Tell Me (I Wanna Know)
TTITLE3=Drop by Drop
TTITLE4=Good Good Lovin'
TTITLE5=Things We Used to Do
TTITLE6=In My Baby's Arms
TTITLE7=Starr Child
EXTD=
EXTT0=
EXTT1=
EXTT2=
EXTT3=
EXTT4=
EXTT5=
EXTT6=
EXTT7=
PLAYORDER=
